#!OML:ASF E:/inclinewalkrobotboard/Project1/Captureday1/Session1/subject1.ASF
:FULLY-SPECIFIED
:DEGREES
101
root 0 0 0 45.01115537010659 -47.123572876225026 -18.507127841522966
lowerback -6.502650153778462 3.60257253567992 -0.4822351863400536
upperback -13.441211825658783 4.310349609433244 -0.07825894124386457
thorax -11.03534393321122 2.111651091373111 0.6817236729315532
lowerneck -11.434959002713372 6.756392766881939 4.435275674715
upperneck 18.192079977329268 7.224870510441958 7.277616046840983
head 7.640853318244346 4.223677019841335 2.1606004541674153
rclavicle 9.123979668455022E-16 -1.8277193236398888E-15
rhumerus 7.959342151314523 -22.47744090429062 -48.47690431639772
rradius 27.91526528368567
rwrist 21.30365019247122
rhand 0.8509428393703278 7.351558983014883
rfingers 7.125020000000029
rthumb 26.468699927226986 -19.69847607750152
lclavicle 1.426474290003121E-15 -9.28077684754E-16
lhumerus -10.502755985426559 3.9300732270327203 51.26968068387048
lradius 35.59158596500754
lwrist -7.863523104561616
lhand -1.7599325995692343 23.33771867112
lfingers 7.125019999999976
lthumb 23.519007311239246 50.51197599472701
rfemur 58.967919121401316 -81.96925080967274 -56.15540238820932
rtibia 40.21342345852948
rfoot -18.42725989071001 -17.979521284275023
rtoes 21.637745236489792
lfemur -44.783706215141024 8.237214829383076 -27.13120161182431
ltibia 44.06437617654162
lfoot -22.78654928667929 14.930256377059148
ltoes 10.896742582453111
102
root 0 0 0 45.00362407260177 -47.12068428450908 -18.504326225544382
lowerback -6.499287413821208 3.6022226294290247 -0.48258154877075254
upperback -13.439494370173723 4.309690830778439 -0.07851274570605637
thorax -11.035257967558309 2.1113625892444627 0.6815317475929668
lowerneck -11.435781458312812 6.756131954778904 4.434945988361428
upperneck 18.19069013449031 7.224574350766993 7.277204168469083
head 7.640455917513281 4.2235097941197886 2.160504716646852
rclavicle 9.12576630377489E-16 -1.8279104624236817E-15
rhumerus 7.943129755656699 -22.476309502656836 -48.48314737392112
rradius 27.917879293370408
rwrist 21.294740008139037
rhand 0.8427481907413998 7.3590567774954065
rfingers 7.125020000000029
rthumb 26.460829800435672 -19.692251002835107
lclavicle 1.4293079785664056E-15 -9.261869921171109E-16
lhumerus -10.513217882672858 3.9218935257231493 51.291895316737204
lradius 35.59515067665111
lwrist -7.850252655777103
lhand -1.764369962962503 23.335994395631996
lfingers 7.125019999999976
lthumb 23.51369383164583 50.510613232913784
rfemur 58.90646965430215 -81.90176675958305 -56.089400239545185
rtibia 40.21389767724757
rfoot -18.425131403306505 -17.971550101823254
rtoes 21.632250228778318
lfemur -44.76314841938771 8.229934758632503 -27.1283018804875
ltibia 44.058998028671176
lfoot -22.778657533029666 14.920205790526161
ltoes 10.887264648505061
103
root 0 0 0 45.03174963920564 -47.139223713865434 -18.514661645387182
lowerback -6.5100400938442196 3.603275572925539 -0.48236326798273543
upperback -13.447839885973348 4.311471297740637 -0.078112604833668
thorax -11.038471539127446 2.1122792344857135 0.6824464431699131
lowerneck -11.431809880248851 6.759781056645395 4.437107469394394
upperneck 18.190858058005176 7.228937845104435 7.280967263892997
head 7.6399767468425495 4.225862247834085 2.161592109728552
rclavicle 9.09271539694678E-16 -1.8264858728075956E-15
rhumerus 8.003371427456976 -22.476251086675546 -48.476890322535
rradius 27.905590766937475
rwrist 21.327526003193263
rhand 0.8682033307797461 7.334724726283666
rfingers 7.125020000000029
rthumb 26.484905365529674 -19.712622084086103
lclavicle 1.4160863764074087E-15 -9.304283549845477E-16
lhumerus -10.483990335525183 3.949570855400336 51.2194014619747
lradius 35.579048854796746
lwrist -7.8935863440160805
lhand -1.7550959396399968 23.343255720259666
lfingers 7.125019999999976
lthumb 23.52547022967359 50.51745266974373
rfemur 59.06968911693045 -82.08751345939461 -56.27216166307292
rtibia 40.21368357341522
rfoot -18.436617674552917 -17.99412647884232
rtoes 21.655185791294574
lfemur -44.82838432120918 8.253810381057157 -27.13734928312011
ltibia 44.07683349436968
lfoot -22.805975189848898 14.953553750254375
ltoes 10.91920525246642
104
root 0 0 0 45.01953374858734 -47.130587664473836 -18.510610060590714
lowerback -6.505324435122142 3.6032115249621466 -0.48191935780950845
upperback -13.443249445873484 4.311259866845038 -0.07847011258003267
thorax -11.036130804836128 2.1120567566506177 0.681507790525026
lowerneck -11.434374146870873 6.757742744474996 4.436239798903659
upperneck 18.191934892970128 7.226490024042603 7.278597138735124
head 7.64070127578578 4.224554500396672 2.1608996834674796
rclavicle 9.10509100032244E-16 -1.8266135561043785E-15
rhumerus 7.9846493132773375 -22.476745538046824 -48.4792627840346
rradius 27.909407766065517
rwrist 21.31879273472925
rhand 0.8595177135040952 7.3426341858248625
rfingers 7.125020000000029
rthumb 26.476947816961978 -19.70590126796916
lclavicle 1.4220451399228638E-15 -9.297045116391663E-16
lhumerus -10.492864482466823 3.9399380908614274 51.244981514361385
lradius 35.585442952490375
lwrist -7.878871557642817
lhand -1.757188289941178 23.340277295318845
lfingers 7.125019999999976
lthumb 23.522792645415418 50.51450012135564
rfemur 59.01150612250645 -82.01742443760068 -56.20296797876436
rtibia 40.21330336675072
rfoot -18.429281478736108 -17.985320355897827
rtoes 21.64288198594361
lfemur -44.80246037093902 8.243872914436091 -27.134466714016
ltibia 44.0697030792149
lfoot -22.792807605486544 14.939406212330434
ltoes 10.904877940856235
105
root 0 0 0 45.01092896809453 -47.12207042146429 -18.50689368731401
lowerback -6.502987231554567 3.6024920049385494 -0.4822093877089128
upperback -13.44106310817217 4.310298975114197 -0.07811163162976298
thorax -11.035007134090836 2.1116258134165617 0.681849638905839
lowerneck -11.434903965921466 6.755975559732167 4.435060555849252
upperneck 18.19277854707032 7.2243593257019025 7.2773553818957595
head 7.641111387588239 4.223406599321831 2.1605111251415448
rclavicle 9.119505125563886E-16 -1.8274486284562367E-15
rhumerus 7.9649547485661625 -22.477224269112654 -48.478166850660955
rradius 27.914189330175898
rwrist 21.306891254518227
rhand 0.8523246102098092 7.3500162573796155
rfingers 7.125020000000029
rthumb 26.469992825785503 -19.69979135757074
lclavicle 1.425144907896757E-15 -9.284490010065164E-16
lhumerus -10.500779361987025 3.9328882780791217 51.263427926554776
lradius 35.58949321803014
lwrist -7.867816230403446
lhand -1.7599401927220786 23.33849497402647
lfingers 7.125019999999976
lthumb 23.51928636847886 50.512870673463915
rfemur 58.97332314143885 -81.9752611727967 -56.16133209986329
rtibia 40.213392214563754
rfoot -18.427574780378723 -17.980239185325335
rtoes 21.63836537256452
lfemur -44.785367646413164 8.237760928785654 -27.131560787252482
ltibia 44.06485284897515
lfoot -22.786991143394633 14.931049941751251
ltoes 10.897367789867285
106
root 0 0 0 45.003434664407024 -47.11944366812084 -18.50412722688217
lowerback -6.4995670036412685 3.602152265711547 -0.4825659681448422
upperback -13.439380740899395 4.309643538431479 -0.07838901962127265
thorax -11.034987546055877 2.111339814769491 0.6816410678724998
lowerneck -11.435727761956873 6.755790890203567 4.434767500188776
upperneck 18.191258634322562 7.22415688374112 7.276995147847728
head 7.640664609330519 4.223288861989931 2.1604329908089923
rclavicle 9.121372396904758E-16 -1.8276452586883323E-15
rhumerus 7.948460368595619 -22.476082541844672 -48.484468278827464
rradius 27.916842556271813
rwrist 21.29783089647014
rhand 0.8440169161641791 7.35762185780053
rfingers 7.125020000000029
rthumb 26.462015229417364 -19.693476515614876
lclavicle 1.428086478074503E-15 -9.265122221355578E-16
lhumerus -10.511473111619184 3.924458235405253 51.28624648205361
lradius 35.59321194819012
lwrist -7.8541563909389165
lhand -1.7644317460285475 23.336709919079116
lfingers 7.125019999999976
lthumb 23.513891922388236 50.51144561321842
rfemur 58.91093375299214 -81.9067470365956 -56.09432298875572
rtibia 40.21387220336202
rfoot -18.42541290783811 -17.97214564552735
rtoes 21.6327826612862
lfemur -44.764531967045556 8.230385205413375 -27.128614812094177
ltibia 44.05939983844107
lfoot -22.779003401161876 14.920864953115824
ltoes 10.887770736767234
107
root 0 0 0 45.0262283473694 -47.136400381153976 -18.513253282019456
lowerback -6.507615927479631 3.6031332940047913 -0.48232092975604623
upperback -13.446529919598316 4.311218137205765 -0.0782187370580032
thorax -11.03828783519467 2.1121008351259802 0.6822642616075738
lowerneck -11.432702143030314 6.759436249650372 4.436795312945733
upperneck 18.189873730651097 7.228640777753112 7.280583225805316
head 7.639647144607218 4.225694839090193 2.161534138546492
rclavicle 9.083528441115298E-16 -1.8274013514125188E-15
rhumerus 7.983584534438432 -22.477818146190806 -48.47553923294258
rradius 27.907959757338965
rwrist 21.32064248395939
rhand 0.8617671853921482 7.340769199783469
rfingers 7.125020000000029
rthumb 26.47908578019844 -19.707380687743346
lclavicle 1.4220177130522074E-15 -9.31701968240138E-16
lhumerus -10.493586194785694 3.94224180690865 51.242283477982795
lradius 35.58329945668953
lwrist -7.881330523645822
lhand -1.7581540641988944 23.341180813878893
lfingers 7.125019999999976
lthumb 23.52205839263695 50.515675210669905
rfemur 59.03774350712429 -82.04178946639679 -56.228812571137766
rtibia 40.214559981689504
rfoot -18.426550350539046 -17.986405809931725
rtoes 21.643235785783588
lfemur -44.80933156324828 8.24773585566017 -27.133649219488486
ltibia 44.07075070039571
lfoot -22.796344873431504 14.942593611461923
ltoes 10.910467922815954
